<?xml version="1.0" encoding="utf-8"?>
<!-- Generator: Adobe Illustrator 18.1.1, SVG Export Plug-In . SVG Version: 6.00 Build 0)  -->
<svg version="1.1" id="Layer_1" xmlns="http://www.w3.org/2000/svg" xmlns:xlink="http://www.w3.org/1999/xlink" x="0px" y="0px"
	 viewBox="0 0 36 36" enable-background="new 0 0 36 36" xml:space="preserve">
<rect display="none" fill="#D1D3D4" width="36" height="36"/>
<path fill="#FFFFFF" d="M35,18c0,9.4-7.6,17-17,17S1,27.4,1,18c0-2.8,0.7-5.5,1.9-7.8c0.2-0.5,0.5-0.9,0.8-1.3C6.7,4.1,12,1,18,1
	c2.3,0,4.5,0.5,6.5,1.3L23,5.5l-0.6,1.4l-1.3,2.7l-0.6,1.4L19,14.1C18.7,14,18.3,14,18,14c-1.2,0-2.3,0.5-3.1,1.4
	c-0.3,0.4-0.6,0.8-0.7,1.3C14.1,17.1,14,17.6,14,18c0,2.2,1.8,4,4,4s4-1.8,4-4c0-1.4-0.7-2.5-1.7-3.3l1.5-3.2
	c2.2,1.3,3.7,3.7,3.7,6.5c0,4.1-3.4,7.5-7.5,7.5s-7.5-3.4-7.5-7.5c0-1.1,0.2-2.1,0.6-3l-1.3-0.8C9.3,15.4,9,16.7,9,18c0,5,4,9,9,9
	s9-4,9-9c0-3.4-1.8-6.3-4.6-7.8l1.3-2.7c3.7,2,6.3,6,6.3,10.6c0,6.6-5.4,12-12,12S6,24.6,6,18c0-1.9,0.4-3.7,1.2-5.3L5.9,12
	c-0.9,1.8-1.4,3.8-1.4,6c0,7.5,6,13.5,13.5,13.5s13.5-6,13.5-13.5c0-5.2-2.9-9.7-7.2-11.9l1.5-3.2C31.3,5.7,35,11.4,35,18z"/>
<path display="none" fill="#808285" d="M31.5,18c0,7.5-6,13.5-13.5,13.5S4.5,25.5,4.5,18c0-2.2,0.5-4.2,1.4-6l1.3,0.8
	C6.4,14.3,6,16.1,6,18c0,6.6,5.4,12,12,12s12-5.4,12-12c0-4.6-2.5-8.5-6.3-10.6l-1.3,2.7c2.7,1.5,4.6,4.5,4.6,7.8c0,5-4,9-9,9
	s-9-4-9-9c0-1.3,0.3-2.6,0.8-3.8l1.3,0.8c-0.4,0.9-0.6,1.9-0.6,3c0,4.1,3.4,7.5,7.5,7.5s7.5-3.4,7.5-7.5c0-2.8-1.5-5.2-3.7-6.5
	l-1.5,3.2c1,0.7,1.7,1.9,1.7,3.3c0,2.2-1.8,4-4,4s-4-1.8-4-4c0-0.4,0.1-0.9,0.2-1.2c0.2-0.5,0.4-1,0.7-1.3c0.7-0.9,1.8-1.4,3.1-1.4
	c0.3,0,0.7,0,1,0.1l1.5-3.2l0.6-1.4l1.3-2.7L23,5.5l1.5-3.2c0.5,0.2,0.9,0.4,1.3,0.6l-1.5,3.2C28.6,8.3,31.5,12.8,31.5,18z"/>
</svg>
