<?xml version="1.0" encoding="UTF-8" ?>
<!DOCTYPE svg PUBLIC "-//W3C//DTD SVG 1.1//EN" "http://www.w3.org/Graphics/SVG/1.1/DTD/svg11.dtd">
<svg width="12.5pt" height="12.5pt" viewBox="0 0 128 128" version="1.1" xmlns="http://www.w3.org/2000/svg">
<path fill="#38b5e6" d=" M 59.73 0.00 L 68.15 0.00 C 80.05 1.09 91.49 6.61 99.62 15.39 C 107.32 23.58 112.17 34.65 112.02 45.97 C 112.05 57.31 111.88 68.66 112.09 80.00 C 112.20 88.55 113.75 97.10 117.02 105.02 C 118.53 108.93 120.54 112.79 120.83 117.04 C 120.85 118.23 120.70 120.48 119.06 120.38 C 111.54 120.65 104.78 115.25 97.15 116.46 C 94.03 116.83 92.83 120.08 91.26 122.34 C 89.89 124.78 87.83 126.77 85.30 128.00 L 81.28 128.00 C 75.26 126.36 70.07 122.51 64.01 121.06 C 57.94 122.46 52.75 126.29 46.76 128.00 L 41.47 128.00 C 37.53 125.38 35.91 120.68 32.50 117.61 C 24.89 114.66 17.49 120.37 9.91 120.74 C 8.84 120.78 7.25 120.12 7.30 118.86 C 6.77 112.54 10.64 107.06 12.39 101.22 C 17.25 87.67 15.75 73.08 16.00 58.97 C 16.22 50.27 15.03 41.28 18.00 32.90 C 23.68 14.86 41.00 1.62 59.73 0.00 Z" />
<path fill="#ffffff" d=" M 46.42 26.52 C 49.39 24.38 53.35 26.03 55.26 28.78 C 59.03 34.00 59.41 41.24 57.23 47.18 C 55.92 50.58 53.11 54.33 49.04 54.01 C 44.63 53.31 42.19 48.72 41.22 44.75 C 39.91 38.47 40.81 30.50 46.42 26.52 Z" />
<path fill="#ffffff" d=" M 75.44 26.38 C 78.64 24.25 82.75 26.46 84.49 29.43 C 87.99 35.03 88.21 42.48 85.44 48.42 C 83.99 51.56 80.86 54.78 77.07 53.87 C 72.13 52.34 70.04 46.72 69.54 42.02 C 69.06 36.41 70.32 29.60 75.44 26.38 Z" />
<path fill="#ffffff" d=" M 40.95 60.79 C 46.68 67.46 54.92 72.46 63.94 72.27 C 72.95 72.48 81.19 67.54 86.95 60.90 C 84.21 69.39 79.03 77.92 70.45 81.44 C 64.73 83.99 57.92 82.63 53.02 78.95 C 46.88 74.63 43.39 67.69 40.95 60.79 Z" />
</svg>
